<svg width="111" height="20" viewBox="0 0 111 20" fill="none" xmlns="http://www.w3.org/2000/svg">
<path d="M10.7148 19.6094C10.1445 19.6094 9.48047 19.5898 8.72266 19.5508C7.96484 19.5195 7.17969 19.4766 6.36719 19.4219C5.55469 19.3672 4.77344 19.3047 4.02344 19.2344C3.27344 19.1719 2.60938 19.1055 2.03125 19.0352C1.46094 18.9648 1.04688 18.9023 0.789062 18.8477C0.632812 18.8086 0.527344 18.75 0.472656 18.6719C0.417969 18.5859 0.390625 18.4922 0.390625 18.3906C0.382812 18.3672 0.378906 18.3516 0.378906 18.3438C0.386719 18.3359 0.390625 18.3203 0.390625 18.2969C0.453125 17.1719 0.523438 15.9805 0.601562 14.7227C0.679688 13.457 0.761719 12.1836 0.847656 10.9023C0.933594 9.61328 1.01953 8.37109 1.10547 7.17578H1.09375L1.24609 3.01562C1.58203 2.88281 2.08594 2.75781 2.75781 2.64062C3.4375 2.51562 4.21094 2.40234 5.07812 2.30078C5.95312 2.19922 6.85547 2.11328 7.78516 2.04297C8.71484 1.96484 9.60938 1.90625 10.4688 1.86719C11.3281 1.82031 12.0781 1.79688 12.7188 1.79688C14.9141 1.79688 16.8086 1.95703 18.4023 2.27734C20.0039 2.59766 21.2422 3.08203 22.1172 3.73047C22.9922 4.37891 23.4414 5.19922 23.4648 6.19141C23.4727 6.63672 23.3086 7.08984 22.9727 7.55078C22.6445 8.00391 22.207 8.41016 21.6602 8.76953C21.1133 9.12891 20.5195 9.38672 19.8789 9.54297C20.6602 9.66797 21.3633 9.875 21.9883 10.1641C22.6211 10.4453 23.125 10.8008 23.5 11.2305C23.875 11.6523 24.0664 12.1406 24.0742 12.6953C24.0977 13.6797 23.9062 14.5938 23.5 15.4375C23.1016 16.2734 22.4023 17.0039 21.4023 17.6289C20.4023 18.2539 19.0312 18.7383 17.2891 19.082C15.5547 19.4336 13.3633 19.6094 10.7148 19.6094ZM9.625 9.09766H11.0898C12.2227 9.09766 13.1016 9.03125 13.7266 8.89844C14.3594 8.75781 14.8125 8.57031 15.0859 8.33594C15.3672 8.10156 15.5469 7.83984 15.625 7.55078C15.6641 7.41797 15.6836 7.30078 15.6836 7.19922C15.6758 6.85547 15.5234 6.57812 15.2266 6.36719C14.9375 6.14844 14.5547 5.98047 14.0781 5.86328C13.6094 5.74609 13.0977 5.66406 12.543 5.61719C11.9961 5.57031 11.457 5.54688 10.9258 5.54688C10.668 5.54688 10.5 5.55469 10.4219 5.57031C10.3438 5.57812 10.2031 5.59766 10 5.62891C9.94531 5.98047 9.88281 6.44922 9.8125 7.03516C9.75 7.61328 9.6875 8.30078 9.625 9.09766ZM9.12109 15.9766C9.91797 15.9766 10.7383 15.9375 11.582 15.8594C12.4336 15.7734 13.2188 15.6445 13.9375 15.4727C14.6562 15.293 15.2383 15.0625 15.6836 14.7812C16.1289 14.4922 16.3438 14.1445 16.3281 13.7383C16.3281 13.6836 16.3203 13.6094 16.3047 13.5156C16.1797 12.8594 15.5742 12.4102 14.4883 12.168C13.4023 11.9258 11.7109 11.8047 9.41406 11.8047L9.12109 15.9766ZM35.6172 2.85156C35.5547 3.32812 35.3125 3.72266 34.8906 4.03516C34.4688 4.34766 33.957 4.58203 33.3555 4.73828C32.7539 4.88672 32.1484 4.96094 31.5391 4.96094C30.6641 4.96094 29.9648 4.91016 29.4414 4.80859C28.918 4.70703 28.5391 4.5 28.3047 4.1875C28.0781 3.86719 27.9648 3.39453 27.9648 2.76953C27.9648 2.41797 28.1133 2.04297 28.4102 1.64453C28.707 1.23828 29.2109 0.894531 29.9219 0.613281C30.6406 0.332031 31.625 0.191406 32.875 0.191406C33.8281 0.191406 34.5469 0.441406 35.0312 0.941406C35.5234 1.43359 35.7188 2.07031 35.6172 2.85156ZM28.7148 19.0703C28.5195 19.0703 28.3242 19.0625 28.1289 19.0469C27.9414 19.0391 27.7539 19.0078 27.5664 18.9531C27.5664 18.6562 27.5859 18.082 27.625 17.2305C27.6641 16.3711 27.7109 15.3359 27.7656 14.125C27.7812 13.6172 27.8008 13.0508 27.8242 12.4258C27.8477 11.793 27.875 11.1562 27.9062 10.5156C27.9375 9.86719 27.9688 9.26953 28 8.72266C28.0391 8.17578 28.082 7.73438 28.1289 7.39844C29.0273 7.33594 29.9453 7.27734 30.8828 7.22266C31.8203 7.16016 32.7539 7.07812 33.6836 6.97656H33.7305C34.1055 6.97656 34.4805 6.98828 34.8555 7.01172L34.4102 17.957V18.0391C34.4102 18.1562 34.4102 18.2734 34.4102 18.3906C34.418 18.5078 34.4258 18.6289 34.4336 18.7539C34.1523 18.793 33.7773 18.8242 33.3086 18.8477C32.8477 18.8711 32.3398 18.8945 31.7852 18.918C31.2383 18.9336 30.6953 18.9531 30.1562 18.9766C29.6172 19 29.1406 19.0312 28.7266 19.0703H28.7148ZM45.7656 19.3867C44.3516 19.3867 43.0703 19.1328 41.9219 18.625C40.7812 18.1172 39.8711 17.4102 39.1914 16.5039C38.5195 15.5977 38.1836 14.5469 38.1836 13.3516C38.1836 12.25 38.418 11.2852 38.8867 10.457C39.3555 9.62891 39.9844 8.94141 40.7734 8.39453C41.5625 7.83984 42.4414 7.42578 43.4102 7.15234C44.3867 6.87109 45.3828 6.73047 46.3984 6.73047C47.2812 6.73047 48.1289 6.875 48.9414 7.16406C49.7539 7.44531 50.4453 7.80078 51.0156 8.23047C51.0312 7.51953 51.0547 6.75781 51.0859 5.94531C51.1172 5.13281 51.1406 4.37109 51.1562 3.66016C51.1562 3.46484 51.1641 3.23047 51.1797 2.95703C51.2031 2.68359 51.2188 2.50391 51.2266 2.41797C51.4531 2.41016 51.7812 2.39453 52.2109 2.37109C52.6484 2.33984 53.125 2.30859 53.6406 2.27734C54.1641 2.23828 54.6758 2.20313 55.1758 2.17188C55.6758 2.14062 56.1172 2.11719 56.5 2.10156C56.8828 2.07812 57.1445 2.06641 57.2852 2.06641H57.3203V18.5547C57.2344 18.6094 57 18.668 56.6172 18.7305C56.2344 18.7852 55.8047 18.8516 55.3281 18.9297C54.8594 19 54.4414 19.082 54.0742 19.1758C53.7852 18.6602 53.5117 18.1797 53.2539 17.7344C52.9961 17.2891 52.7578 16.8516 52.5391 16.4219C52.1406 16.9453 51.6602 17.4336 51.0977 17.8867C50.5352 18.3398 49.8281 18.7031 48.9766 18.9766C48.125 19.25 47.0547 19.3867 45.7656 19.3867ZM47.582 16.0117C48.3398 16.0117 48.957 15.8555 49.4336 15.543C49.918 15.2227 50.2773 14.8203 50.5117 14.3359C50.7461 13.8438 50.8711 13.3359 50.8867 12.8125C50.8867 12.3281 50.7773 11.8711 50.5586 11.4414C50.3477 11.0039 50.0352 10.6523 49.6211 10.3867C49.2148 10.1133 48.7227 9.97656 48.1445 9.97656C47.5039 9.97656 46.9609 10.1445 46.5156 10.4805C46.0781 10.8086 45.7461 11.2148 45.5195 11.6992C45.293 12.1836 45.1797 12.6562 45.1797 13.1172C45.1797 14.0391 45.3789 14.7539 45.7773 15.2617C46.1836 15.7617 46.7852 16.0117 47.582 16.0117ZM73.5039 19.5273C72.3633 19.5273 71.1836 19.4453 69.9648 19.2812C68.7539 19.1172 67.5859 18.8438 66.4609 18.4609C65.3359 18.0781 64.3242 17.5586 63.4258 16.9023C62.5352 16.2461 61.8242 15.4297 61.293 14.4531C60.7695 13.4688 60.5078 12.293 60.5078 10.9258C60.5078 9.64453 60.7539 8.52734 61.2461 7.57422C61.7383 6.61328 62.3945 5.79297 63.2148 5.11328C64.0352 4.42578 64.9414 3.85938 65.9336 3.41406C66.9258 2.96094 67.9297 2.60547 68.9453 2.34766C69.9609 2.08984 70.9102 1.91016 71.793 1.80859C72.6836 1.69922 73.4219 1.64453 74.0078 1.64453C75.25 1.64453 76.5117 1.72266 77.793 1.87891C79.0742 2.03516 80.3008 2.30078 81.4727 2.67578C82.6445 3.04297 83.6914 3.55078 84.6133 4.19922C85.5352 4.84766 86.2656 5.66406 86.8047 6.64844C87.3438 7.625 87.6133 8.80078 87.6133 10.1758C87.6133 11.6758 87.3242 12.9609 86.7461 14.0312C86.168 15.1016 85.3906 15.9961 84.4141 16.7148C83.4375 17.4258 82.3359 17.9883 81.1094 18.4023C79.8828 18.8086 78.6133 19.0977 77.3008 19.2695C75.9961 19.4414 74.7305 19.5273 73.5039 19.5273ZM74.0664 14.7695C75.418 14.7305 76.4648 14.3555 77.207 13.6445C77.9492 12.9258 78.3203 11.8125 78.3203 10.3047C78.3203 9.33594 78.1445 8.57812 77.793 8.03125C77.4492 7.47656 76.9688 7.08594 76.3516 6.85938C75.7344 6.625 75.0156 6.50781 74.1953 6.50781C72.875 6.50781 71.8281 6.86328 71.0547 7.57422C70.2812 8.28516 69.8945 9.33984 69.8945 10.7383C69.8945 12.207 70.2695 13.2578 71.0195 13.8906C71.7773 14.5156 72.793 14.8086 74.0664 14.7695ZM90.6367 19.1172C90.6367 18.9219 90.6445 18.5195 90.6602 17.9102C90.6758 17.3008 90.6953 16.5781 90.7188 15.7422C90.75 14.9062 90.7773 14.043 90.8008 13.1523C90.8242 12.2539 90.8477 11.4102 90.8711 10.6211C90.9023 9.82422 90.9258 9.16797 90.9414 8.65234C90.957 8.12891 90.9648 7.83594 90.9648 7.77344L94.8906 6.94141L96.1445 9.35547C96.6367 8.73047 97.2578 8.23828 98.0078 7.87891C98.7656 7.51172 99.5742 7.25 100.434 7.09375C101.301 6.9375 102.145 6.85938 102.965 6.85938C104.801 6.85938 106.359 7.19531 107.641 7.86719C108.922 8.53906 109.75 9.57422 110.125 10.9727C110.188 11.2461 110.227 11.5273 110.242 11.8164C110.266 12.1055 110.277 12.3906 110.277 12.6719C110.277 12.9609 110.266 13.3281 110.242 13.7734C110.227 14.2188 110.203 14.8516 110.172 15.6719C110.141 16.4922 110.105 17.6133 110.066 19.0352L103.082 19.082L103.152 13.5039C103.152 12.707 102.934 12.0391 102.496 11.5C102.066 10.9609 101.504 10.6914 100.809 10.6914C99.9336 10.6914 99.2695 10.9219 98.8164 11.3828C98.3711 11.8359 98.0703 12.4258 97.9141 13.1523C97.7656 13.8711 97.6914 14.6367 97.6914 15.4492C97.6914 15.6602 97.6875 15.9609 97.6797 16.3516C97.6719 16.7344 97.6641 17.1289 97.6562 17.5352C97.6562 17.9414 97.6523 18.2891 97.6445 18.5781C97.6367 18.8594 97.6328 19 97.6328 19L90.6367 19.1172Z" fill="#7D49F8"/>
</svg>
