<svg width="48" height="48" viewBox="0 0 48 48" fill="none" xmlns="http://www.w3.org/2000/svg">
<rect width="48" height="48" rx="24" fill="#7D49F8"/>
<path d="M22.8516 33.6094C22.2812 33.6094 21.6172 33.5898 20.8594 33.5508C20.1016 33.5195 19.3164 33.4766 18.5039 33.4219C17.6914 33.3672 16.9102 33.3047 16.1602 33.2344C15.4102 33.1719 14.7461 33.1055 14.168 33.0352C13.5977 32.9648 13.1836 32.9023 12.9258 32.8477C12.7695 32.8086 12.6641 32.75 12.6094 32.6719C12.5547 32.5859 12.5273 32.4922 12.5273 32.3906C12.5195 32.3672 12.5156 32.3516 12.5156 32.3438C12.5234 32.3359 12.5273 32.3203 12.5273 32.2969C12.5898 31.1719 12.6602 29.9805 12.7383 28.7227C12.8164 27.457 12.8984 26.1836 12.9844 24.9023C13.0703 23.6133 13.1562 22.3711 13.2422 21.1758H13.2305L13.3828 17.0156C13.7188 16.8828 14.2227 16.7578 14.8945 16.6406C15.5742 16.5156 16.3477 16.4023 17.2148 16.3008C18.0898 16.1992 18.9922 16.1133 19.9219 16.043C20.8516 15.9648 21.7461 15.9062 22.6055 15.8672C23.4648 15.8203 24.2148 15.7969 24.8555 15.7969C27.0508 15.7969 28.9453 15.957 30.5391 16.2773C32.1406 16.5977 33.3789 17.082 34.2539 17.7305C35.1289 18.3789 35.5781 19.1992 35.6016 20.1914C35.6094 20.6367 35.4453 21.0898 35.1094 21.5508C34.7812 22.0039 34.3438 22.4102 33.7969 22.7695C33.25 23.1289 32.6562 23.3867 32.0156 23.543C32.7969 23.668 33.5 23.875 34.125 24.1641C34.7578 24.4453 35.2617 24.8008 35.6367 25.2305C36.0117 25.6523 36.2031 26.1406 36.2109 26.6953C36.2344 27.6797 36.043 28.5938 35.6367 29.4375C35.2383 30.2734 34.5391 31.0039 33.5391 31.6289C32.5391 32.2539 31.168 32.7383 29.4258 33.082C27.6914 33.4336 25.5 33.6094 22.8516 33.6094ZM21.7617 23.0977H23.2266C24.3594 23.0977 25.2383 23.0312 25.8633 22.8984C26.4961 22.7578 26.9492 22.5703 27.2227 22.3359C27.5039 22.1016 27.6836 21.8398 27.7617 21.5508C27.8008 21.418 27.8203 21.3008 27.8203 21.1992C27.8125 20.8555 27.6602 20.5781 27.3633 20.3672C27.0742 20.1484 26.6914 19.9805 26.2148 19.8633C25.7461 19.7461 25.2344 19.6641 24.6797 19.6172C24.1328 19.5703 23.5938 19.5469 23.0625 19.5469C22.8047 19.5469 22.6367 19.5547 22.5586 19.5703C22.4805 19.5781 22.3398 19.5977 22.1367 19.6289C22.082 19.9805 22.0195 20.4492 21.9492 21.0352C21.8867 21.6133 21.8242 22.3008 21.7617 23.0977ZM21.2578 29.9766C22.0547 29.9766 22.875 29.9375 23.7188 29.8594C24.5703 29.7734 25.3555 29.6445 26.0742 29.4727C26.793 29.293 27.375 29.0625 27.8203 28.7812C28.2656 28.4922 28.4805 28.1445 28.4648 27.7383C28.4648 27.6836 28.457 27.6094 28.4414 27.5156C28.3164 26.8594 27.7109 26.4102 26.625 26.168C25.5391 25.9258 23.8477 25.8047 21.5508 25.8047L21.2578 29.9766Z" fill="#F7F6F6"/>
</svg>
