<svg width="24" height="25" viewBox="0 0 24 25" fill="none" xmlns="http://www.w3.org/2000/svg">
<path d="M19 18C19.005 18.3581 18.8818 18.7061 18.6525 18.9812C18.4233 19.2563 18.1032 19.4404 17.75 19.5H17.5H6.50005H6.25005C5.89694 19.4404 5.57682 19.2563 5.34757 18.9812C5.11831 18.7061 4.99504 18.3581 5.00005 18C4.99297 17.6414 5.11549 17.2923 5.34511 17.0167C5.57473 16.7412 5.89604 16.5577 6.25005 16.5V10.75C6.25005 9.22501 6.85585 7.76247 7.93418 6.68414C9.01252 5.6058 10.4751 5 12 5C13.525 5 14.9876 5.6058 16.0659 6.68414C17.1442 7.76247 17.75 9.22501 17.75 10.75V16.5C18.1041 16.5577 18.4254 16.7412 18.655 17.0167C18.8846 17.2923 19.0071 17.6414 19 18Z" stroke="#F7F6F6" stroke-width="1.5" stroke-linecap="round" stroke-linejoin="round"/>
<path d="M10 21.5H14" stroke="#F7F6F6" stroke-width="1.5" stroke-linecap="round" stroke-linejoin="round"/>
<path d="M12.82 5.07C12.9367 4.9028 12.9995 4.70391 13 4.5C13 4.23478 12.8946 3.98043 12.7071 3.79289C12.5196 3.60536 12.2652 3.5 12 3.5C11.7348 3.5 11.4804 3.60536 11.2929 3.79289C11.1054 3.98043 11 4.23478 11 4.5C11.0005 4.70391 11.0633 4.9028 11.18 5.07" stroke="#F7F6F6" stroke-width="1.5" stroke-linecap="round" stroke-linejoin="round"/>
</svg>
